<svg width="75" height="54" viewBox="0 0 75 54" fill="none" xmlns="http://www.w3.org/2000/svg">
<path d="M35.25 1.5V4.5L33.75 5.25L31.5 3L28.5 6L30.75 8.25L30 9.75H27V14.25H30L30.75 15.75L28.5 18L31.5 21L33.75 18.75L35.25 19.5V22.5H39.75V19.5L41.25 18.75L43.5 21L46.5 18L44.25 15.75L45 14.25H48V9.75H45L44.25 8.25L46.5 6L43.5 3L41.25 5.25L39.75 4.5V1.5H35.25Z" stroke="#C2C2C2" stroke-width="2" stroke-linecap="round" stroke-linejoin="round"/>
<path d="M37.5 15C39.1569 15 40.5 13.6569 40.5 12C40.5 10.3431 39.1569 9 37.5 9C35.8431 9 34.5 10.3431 34.5 12C34.5 13.6569 35.8431 15 37.5 15Z" stroke="#C2C2C2" stroke-width="2" stroke-linecap="round" stroke-linejoin="round"/>
<path d="M14.368 40.14C13.556 40.14 12.8747 40.0187 12.324 39.776C11.7733 39.524 11.3487 39.202 11.05 38.81C10.7607 38.4087 10.6067 37.984 10.588 37.536C10.588 37.4613 10.616 37.396 10.672 37.34C10.7373 37.2747 10.812 37.242 10.896 37.242H11.61C11.722 37.242 11.806 37.27 11.862 37.326C11.918 37.382 11.9553 37.4473 11.974 37.522C12.0207 37.746 12.1327 37.97 12.31 38.194C12.4967 38.4087 12.7533 38.5907 13.08 38.74C13.416 38.88 13.8453 38.95 14.368 38.95C15.1707 38.95 15.7587 38.81 16.132 38.53C16.5147 38.2407 16.706 37.858 16.706 37.382C16.706 37.0553 16.6033 36.794 16.398 36.598C16.202 36.3927 15.8987 36.2107 15.488 36.052C15.0773 35.8933 14.5453 35.7207 13.892 35.534C13.2107 35.338 12.646 35.1233 12.198 34.89C11.75 34.6567 11.414 34.3673 11.19 34.022C10.9753 33.6767 10.868 33.238 10.868 32.706C10.868 32.202 11.0033 31.754 11.274 31.362C11.5447 30.9607 11.932 30.6433 12.436 30.41C12.9493 30.1767 13.57 30.06 14.298 30.06C14.8767 30.06 15.3807 30.1393 15.81 30.298C16.2487 30.4473 16.6127 30.6527 16.902 30.914C17.1913 31.166 17.4107 31.4413 17.56 31.74C17.7093 32.0293 17.7887 32.314 17.798 32.594C17.798 32.6593 17.7747 32.7247 17.728 32.79C17.6813 32.846 17.6067 32.874 17.504 32.874H16.762C16.6967 32.874 16.6267 32.8553 16.552 32.818C16.4867 32.7807 16.4353 32.7107 16.398 32.608C16.342 32.2253 16.1273 31.9033 15.754 31.642C15.3807 31.3807 14.8953 31.25 14.298 31.25C13.6913 31.25 13.1967 31.3667 12.814 31.6C12.4407 31.8333 12.254 32.1973 12.254 32.692C12.254 33.0093 12.3427 33.2753 12.52 33.49C12.6973 33.6953 12.9773 33.8773 13.36 34.036C13.7427 34.1947 14.242 34.3627 14.858 34.54C15.6047 34.7453 16.216 34.9647 16.692 35.198C17.168 35.422 17.518 35.7067 17.742 36.052C17.9753 36.388 18.092 36.822 18.092 37.354C18.092 37.942 17.938 38.446 17.63 38.866C17.322 39.2767 16.888 39.594 16.328 39.818C15.7773 40.0327 15.124 40.14 14.368 40.14ZM22.643 40.14C21.6817 40.14 20.9163 39.846 20.347 39.258C19.7777 38.6607 19.465 37.8487 19.409 36.822C19.3997 36.7007 19.395 36.5467 19.395 36.36C19.395 36.164 19.3997 36.0053 19.409 35.884C19.4463 35.2213 19.6003 34.6427 19.871 34.148C20.1417 33.644 20.5103 33.2567 20.977 32.986C21.453 32.7153 22.0083 32.58 22.643 32.58C23.3523 32.58 23.945 32.7293 24.421 33.028C24.9063 33.3267 25.275 33.7513 25.527 34.302C25.779 34.8527 25.905 35.4967 25.905 36.234V36.472C25.905 36.5747 25.8723 36.654 25.807 36.71C25.751 36.766 25.6763 36.794 25.583 36.794H20.739C20.739 36.8033 20.739 36.822 20.739 36.85C20.739 36.878 20.739 36.9013 20.739 36.92C20.7577 37.3027 20.8417 37.662 20.991 37.998C21.1403 38.3247 21.355 38.5907 21.635 38.796C21.915 39.0013 22.251 39.104 22.643 39.104C22.979 39.104 23.259 39.0527 23.483 38.95C23.707 38.8473 23.889 38.7353 24.029 38.614C24.169 38.4833 24.2623 38.3853 24.309 38.32C24.393 38.1987 24.4583 38.1287 24.505 38.11C24.5517 38.082 24.6263 38.068 24.729 38.068H25.401C25.4943 38.068 25.569 38.096 25.625 38.152C25.6903 38.1987 25.7183 38.2687 25.709 38.362C25.6997 38.502 25.625 38.6747 25.485 38.88C25.345 39.076 25.1443 39.272 24.883 39.468C24.6217 39.664 24.3043 39.8273 23.931 39.958C23.5577 40.0793 23.1283 40.14 22.643 40.14ZM20.739 35.828H24.575V35.786C24.575 35.366 24.4957 34.9927 24.337 34.666C24.1877 34.3393 23.9683 34.0827 23.679 33.896C23.3897 33.7 23.0443 33.602 22.643 33.602C22.2417 33.602 21.8963 33.7 21.607 33.896C21.327 34.0827 21.1123 34.3393 20.963 34.666C20.8137 34.9927 20.739 35.366 20.739 35.786V35.828ZM30.38 40C29.8573 40 29.4326 39.902 29.106 39.706C28.7793 39.5007 28.5413 39.216 28.392 38.852C28.2426 38.4787 28.168 38.04 28.168 37.536V33.84H27.076C26.9826 33.84 26.9033 33.812 26.838 33.756C26.782 33.6907 26.754 33.6113 26.754 33.518V33.042C26.754 32.9487 26.782 32.874 26.838 32.818C26.9033 32.7527 26.9826 32.72 27.076 32.72H28.168V30.382C28.168 30.2887 28.196 30.214 28.252 30.158C28.3173 30.0927 28.3966 30.06 28.49 30.06H29.148C29.2413 30.06 29.316 30.0927 29.372 30.158C29.4373 30.214 29.47 30.2887 29.47 30.382V32.72H31.206C31.2993 32.72 31.374 32.7527 31.43 32.818C31.4953 32.874 31.528 32.9487 31.528 33.042V33.518C31.528 33.6113 31.4953 33.6907 31.43 33.756C31.374 33.812 31.2993 33.84 31.206 33.84H29.47V37.438C29.47 37.8767 29.5446 38.222 29.694 38.474C29.8433 38.726 30.1093 38.852 30.492 38.852H31.346C31.4393 38.852 31.514 38.8847 31.57 38.95C31.6353 39.006 31.668 39.0807 31.668 39.174V39.678C31.668 39.7713 31.6353 39.8507 31.57 39.916C31.514 39.972 31.4393 40 31.346 40H30.38ZM35.8487 40C35.326 40 34.9014 39.902 34.5747 39.706C34.248 39.5007 34.01 39.216 33.8607 38.852C33.7114 38.4787 33.6367 38.04 33.6367 37.536V33.84H32.5447C32.4514 33.84 32.372 33.812 32.3067 33.756C32.2507 33.6907 32.2227 33.6113 32.2227 33.518V33.042C32.2227 32.9487 32.2507 32.874 32.3067 32.818C32.372 32.7527 32.4514 32.72 32.5447 32.72H33.6367V30.382C33.6367 30.2887 33.6647 30.214 33.7207 30.158C33.786 30.0927 33.8654 30.06 33.9587 30.06H34.6167C34.71 30.06 34.7847 30.0927 34.8407 30.158C34.906 30.214 34.9387 30.2887 34.9387 30.382V32.72H36.6747C36.768 32.72 36.8427 32.7527 36.8987 32.818C36.964 32.874 36.9967 32.9487 36.9967 33.042V33.518C36.9967 33.6113 36.964 33.6907 36.8987 33.756C36.8427 33.812 36.768 33.84 36.6747 33.84H34.9387V37.438C34.9387 37.8767 35.0134 38.222 35.1627 38.474C35.312 38.726 35.578 38.852 35.9607 38.852H36.8147C36.908 38.852 36.9827 38.8847 37.0387 38.95C37.104 39.006 37.1367 39.0807 37.1367 39.174V39.678C37.1367 39.7713 37.104 39.8507 37.0387 39.916C36.9827 39.972 36.908 40 36.8147 40H35.8487ZM38.7975 40C38.7041 40 38.6248 39.972 38.5595 39.916C38.5035 39.8507 38.4755 39.7713 38.4755 39.678V33.042C38.4755 32.9487 38.5035 32.874 38.5595 32.818C38.6248 32.7527 38.7041 32.72 38.7975 32.72H39.4695C39.5628 32.72 39.6375 32.7527 39.6935 32.818C39.7495 32.874 39.7775 32.9487 39.7775 33.042V39.678C39.7775 39.7713 39.7495 39.8507 39.6935 39.916C39.6375 39.972 39.5628 40 39.4695 40H38.7975ZM38.6855 31.362C38.5921 31.362 38.5128 31.334 38.4475 31.278C38.3915 31.2127 38.3635 31.1333 38.3635 31.04V30.284C38.3635 30.1907 38.3915 30.116 38.4475 30.06C38.5128 29.9947 38.5921 29.962 38.6855 29.962H39.5675C39.6608 29.962 39.7355 29.9947 39.7915 30.06C39.8568 30.116 39.8895 30.1907 39.8895 30.284V31.04C39.8895 31.1333 39.8568 31.2127 39.7915 31.278C39.7355 31.334 39.6608 31.362 39.5675 31.362H38.6855ZM42.3248 40C42.2315 40 42.1521 39.972 42.0868 39.916C42.0308 39.8507 42.0028 39.7713 42.0028 39.678V33.042C42.0028 32.9487 42.0308 32.874 42.0868 32.818C42.1521 32.7527 42.2315 32.72 42.3248 32.72H42.9828C43.0761 32.72 43.1508 32.7527 43.2068 32.818C43.2721 32.874 43.3048 32.9487 43.3048 33.042V33.658C43.5475 33.3407 43.8508 33.084 44.2148 32.888C44.5881 32.6827 45.0641 32.58 45.6428 32.58C46.2495 32.58 46.7628 32.7153 47.1828 32.986C47.6121 33.2473 47.9341 33.616 48.1488 34.092C48.3635 34.5587 48.4708 35.1047 48.4708 35.73V39.678C48.4708 39.7713 48.4428 39.8507 48.3868 39.916C48.3308 39.972 48.2561 40 48.1628 40H47.4628C47.3695 40 47.2901 39.972 47.2248 39.916C47.1688 39.8507 47.1408 39.7713 47.1408 39.678V35.8C47.1408 35.1467 46.9821 34.638 46.6648 34.274C46.3475 33.9007 45.8808 33.714 45.2648 33.714C44.6861 33.714 44.2195 33.9007 43.8648 34.274C43.5195 34.638 43.3468 35.1467 43.3468 35.8V39.678C43.3468 39.7713 43.3141 39.8507 43.2488 39.916C43.1928 39.972 43.1181 40 43.0248 40H42.3248ZM53.475 43.08C52.8404 43.08 52.3177 42.996 51.907 42.828C51.5057 42.66 51.1884 42.4547 50.955 42.212C50.731 41.9787 50.5677 41.7407 50.465 41.498C50.3717 41.2647 50.3204 41.078 50.311 40.938C50.3017 40.8447 50.3297 40.7653 50.395 40.7C50.4697 40.6347 50.549 40.602 50.633 40.602H51.305C51.389 40.602 51.459 40.6207 51.515 40.658C51.571 40.6953 51.6177 40.7747 51.655 40.896C51.711 41.036 51.795 41.19 51.907 41.358C52.019 41.5353 52.1917 41.6847 52.425 41.806C52.6584 41.9367 52.985 42.002 53.405 42.002C53.8437 42.002 54.2124 41.9413 54.511 41.82C54.8097 41.708 55.0337 41.5027 55.183 41.204C55.3417 40.9147 55.421 40.5133 55.421 40V39.048C55.197 39.3373 54.903 39.58 54.539 39.776C54.175 39.9627 53.7177 40.056 53.167 40.056C52.6444 40.056 52.1964 39.9673 51.823 39.79C51.4497 39.6033 51.1417 39.356 50.899 39.048C50.6657 38.7307 50.4884 38.3713 50.367 37.97C50.255 37.5687 50.1897 37.1487 50.171 36.71C50.1617 36.4487 50.1617 36.192 50.171 35.94C50.1897 35.5013 50.255 35.0813 50.367 34.68C50.4884 34.2787 50.6657 33.9193 50.899 33.602C51.1417 33.2847 51.4497 33.0373 51.823 32.86C52.1964 32.6733 52.6444 32.58 53.167 32.58C53.727 32.58 54.189 32.6873 54.553 32.902C54.9264 33.1073 55.2297 33.3593 55.463 33.658V33.056C55.463 32.9627 55.491 32.8833 55.547 32.818C55.6124 32.7527 55.6917 32.72 55.785 32.72H56.429C56.5224 32.72 56.6017 32.7527 56.667 32.818C56.7324 32.8833 56.765 32.9627 56.765 33.056V39.846C56.765 40.4713 56.6577 41.0267 56.443 41.512C56.2377 41.9973 55.8924 42.38 55.407 42.66C54.931 42.94 54.287 43.08 53.475 43.08ZM53.447 38.936C53.9137 38.936 54.287 38.8287 54.567 38.614C54.8564 38.3993 55.0664 38.1287 55.197 37.802C55.337 37.4753 55.4117 37.144 55.421 36.808C55.4304 36.6773 55.435 36.5187 55.435 36.332C55.435 36.136 55.4304 35.9727 55.421 35.842C55.4117 35.506 55.337 35.1747 55.197 34.848C55.0664 34.5213 54.8564 34.2507 54.567 34.036C54.287 33.8213 53.9137 33.714 53.447 33.714C52.9804 33.714 52.607 33.8213 52.327 34.036C52.047 34.2413 51.8464 34.5167 51.725 34.862C51.6037 35.198 51.5337 35.562 51.515 35.954C51.5057 36.1967 51.5057 36.444 51.515 36.696C51.5337 37.088 51.6037 37.4567 51.725 37.802C51.8464 38.138 52.047 38.4133 52.327 38.628C52.607 38.8333 52.9804 38.936 53.447 38.936ZM61.3665 40.14C60.8439 40.14 60.3959 40.0747 60.0225 39.944C59.6492 39.8133 59.3459 39.6547 59.1125 39.468C58.8792 39.2813 58.7019 39.0947 58.5805 38.908C58.4685 38.7213 58.4079 38.572 58.3985 38.46C58.3892 38.3573 58.4219 38.278 58.4965 38.222C58.5712 38.166 58.6459 38.138 58.7205 38.138H59.3365C59.3925 38.138 59.4345 38.1473 59.4625 38.166C59.4999 38.1753 59.5465 38.2127 59.6025 38.278C59.7239 38.4087 59.8592 38.5393 60.0085 38.67C60.1579 38.8007 60.3399 38.908 60.5545 38.992C60.7785 39.076 61.0539 39.118 61.3805 39.118C61.8565 39.118 62.2485 39.0293 62.5565 38.852C62.8645 38.6653 63.0185 38.3947 63.0185 38.04C63.0185 37.8067 62.9532 37.62 62.8225 37.48C62.7012 37.34 62.4772 37.214 62.1505 37.102C61.8332 36.99 61.3945 36.8733 60.8345 36.752C60.2745 36.6213 59.8312 36.4627 59.5045 36.276C59.1779 36.08 58.9445 35.8513 58.8045 35.59C58.6645 35.3193 58.5945 35.016 58.5945 34.68C58.5945 34.3347 58.6972 34.0033 58.9025 33.686C59.1079 33.3593 59.4065 33.0933 59.7985 32.888C60.1999 32.6827 60.6992 32.58 61.2965 32.58C61.7819 32.58 62.1972 32.6407 62.5425 32.762C62.8879 32.8833 63.1725 33.0373 63.3965 33.224C63.6205 33.4013 63.7885 33.5787 63.9005 33.756C64.0125 33.9333 64.0732 34.0827 64.0825 34.204C64.0919 34.2973 64.0639 34.3767 63.9985 34.442C63.9332 34.498 63.8585 34.526 63.7745 34.526H63.1865C63.1212 34.526 63.0652 34.512 63.0185 34.484C62.9812 34.456 62.9439 34.4233 62.9065 34.386C62.8132 34.2647 62.7012 34.1433 62.5705 34.022C62.4492 33.9007 62.2859 33.8027 62.0805 33.728C61.8845 33.644 61.6232 33.602 61.2965 33.602C60.8299 33.602 60.4799 33.7 60.2465 33.896C60.0132 34.092 59.8965 34.3393 59.8965 34.638C59.8965 34.8153 59.9479 34.974 60.0505 35.114C60.1532 35.254 60.3492 35.38 60.6385 35.492C60.9279 35.604 61.3572 35.7253 61.9265 35.856C62.5425 35.9773 63.0279 36.1407 63.3825 36.346C63.7372 36.5513 63.9892 36.7893 64.1385 37.06C64.2879 37.3307 64.3625 37.6433 64.3625 37.998C64.3625 38.39 64.2459 38.7493 64.0125 39.076C63.7885 39.4027 63.4525 39.664 63.0045 39.86C62.5659 40.0467 62.0199 40.14 61.3665 40.14Z" fill="#C2C2C2"/>
</svg>
